Input #0, mov,mp4,m4a,3gp,3g2,mj2, from '/home/runner/work/Auto_Browser/Auto_Browser/recordings/oncc/latest.mp4':
  Metadata:
    major_brand     : isom
    minor_version   : 512
    compatible_brands: isomiso2avc1mp41
    encoder         : Lavf60.16.100
  Duration: 00:02:31.00, start: 0.000000, bitrate: 568 kb/s
  Stream #0:0[0x1](und): Video: h264 (High) (avc1 / 0x31637661), yuv420p(progressive), 1366x900, 565 kb/s, 25 fps, 25 tbr, 12800 tbn (default)
    Metadata:
      handler_name    : VideoHandler
      vendor_id       : [0][0][0][0]
      encoder         : Lavc60.31.102 libx264
Stream mapping:
  Stream #0:0 -> #0:0 (h264 (native) -> vp8 (libvpx))
Press [q] to stop, [?] for help
[libvpx @ 0x5615950e1000] v1.14.0
Output #0, webm, to '/home/runner/work/Auto_Browser/Auto_Browser/recordings/oncc/latest.webm':
  Metadata:
    major_brand     : isom
    minor_version   : 512
    compatible_brands: isomiso2avc1mp41
    encoder         : Lavf60.16.100
  Stream #0:0(und): Video: vp8, yuv420p(progressive), 1366x900, q=2-31, 1800 kb/s, 25 fps, 1k tbn (default)
    Metadata:
      handler_name    : VideoHandler
      vendor_id       : [0][0][0][0]
      encoder         : Lavc60.31.102 libvpx
    Side data:
      cpb: bitrate max/min/avg: 0/0/0 buffer size: 0 vbv_delay: N/A
frame=    0 fps=0.0 q=11.0 size=       0kB time=00:00:00.00 bitrate=N/A speed=   0x    frame=   35 fps=0.0 q=11.0 size=       1kB time=00:00:01.40 bitrate=   3.6kbits/s speed=2.69x    frame=   71 fps= 69 q=13.0 size=       1kB time=00:00:02.84 bitrate=   1.8kbits/s speed=2.75x    frame=  107 fps= 69 q=12.0 size=       1kB time=00:00:04.28 bitrate=   1.2kbits/s speed=2.77x    frame=  139 fps= 68 q=18.0 size=    1024kB time=00:00:05.56 bitrate=1508.7kbits/s speed=2.72x    frame=  178 fps= 70 q=12.0 size=    1024kB time=00:00:07.12 bitrate=1178.2kbits/s speed=2.79x    frame=  228 fps= 75 q=11.0 size=    1024kB time=00:00:09.12 bitrate= 919.8kbits/s speed=2.98x    frame=  270 fps= 76 q=14.0 size=    1792kB time=00:00:10.80 bitrate=1359.3kbits/s speed=3.03x    frame=  317 fps= 78 q=10.0 size=    1792kB time=00:00:12.68 bitrate=1157.7kbits/s speed=3.12x    frame=  365 fps= 80 q=10.0 size=    1792kB time=00:00:14.60 bitrate=1005.5kbits/s speed=3.19x    frame=  412 fps= 81 q=9.0 size=    2304kB time=00:00:16.48 bitrate=1145.3kbits/s speed=3.25x    frame=  453 fps= 81 q=8.0 size=    2304kB time=00:00:18.12 bitrate=1041.6kbits/s speed=3.25x    frame=  496 fps= 81 q=6.0 size=    2304kB time=00:00:19.84 bitrate= 951.3kbits/s speed=3.26x    frame=  534 fps= 81 q=8.0 size=    3328kB time=00:00:21.36 bitrate=1276.4kbits/s speed=3.23x    frame=  575 fps= 81 q=8.0 size=    3328kB time=00:00:23.00 bitrate=1185.3kbits/s speed=3.23x    frame=  610 fps= 80 q=7.0 size=    3328kB time=00:00:24.40 bitrate=1117.3kbits/s speed= 3.2x    frame=  649 fps= 80 q=12.0 size=    4352kB time=00:00:25.96 bitrate=1373.3kbits/s speed= 3.2x    frame=  686 fps= 80 q=7.0 size=    4352kB time=00:00:27.44 bitrate=1299.3kbits/s speed=3.18x    frame=  729 fps= 80 q=7.0 size=    4352kB time=00:00:29.16 bitrate=1222.6kbits/s speed=3.19x    frame=  768 fps= 80 q=54.0 size=    5376kB time=00:00:30.72 bitrate=1433.6kbits/s speed=3.19x    frame=  803 fps= 79 q=7.0 size=    5376kB time=00:00:32.12 bitrate=1371.1kbits/s speed=3.17x    frame=  845 fps= 79 q=6.0 size=    5376kB time=00:00:33.80 bitrate=1303.0kbits/s speed=3.18x    frame=  884 fps= 79 q=6.0 size=    5376kB time=00:00:35.36 bitrate=1245.5kbits/s speed=3.17x    frame=  921 fps= 79 q=6.0 size=    6400kB time=00:00:36.84 bitrate=1423.1kbits/s speed=3.16x    frame=  957 fps= 79 q=6.0 size=    6400kB time=00:00:38.28 bitrate=1369.6kbits/s speed=3.15x    frame=  995 fps= 79 q=6.0 size=    6400kB time=00:00:39.80 bitrate=1317.3kbits/s speed=3.15x    frame= 1031 fps= 78 q=7.0 size=    7680kB time=00:00:41.24 bitrate=1525.6kbits/s speed=3.13x    frame= 1070 fps= 78 q=6.0 size=    7680kB time=00:00:42.80 bitrate=1470.0kbits/s speed=3.13x    frame= 1109 fps= 78 q=6.0 size=    7680kB time=00:00:44.36 bitrate=1418.3kbits/s speed=3.13x    frame= 1145 fps= 78 q=6.0 size=    7680kB time=00:00:45.80 bitrate=1373.7kbits/s speed=3.12x    frame= 1184 fps= 78 q=6.0 size=    8704kB time=00:00:47.36 bitrate=1505.6kbits/s speed=3.12x    frame= 1224 fps= 78 q=6.0 size=    8704kB time=00:00:48.96 bitrate=1456.4kbits/s speed=3.12x    frame= 1260 fps= 78 q=6.0 size=    8704kB time=00:00:50.40 bitrate=1414.7kbits/s speed=3.11x    frame= 1296 fps= 78 q=6.0 size=    9728kB time=00:00:51.84 bitrate=1537.3kbits/s speed= 3.1x    frame= 1336 fps= 78 q=6.0 size=    9728kB time=00:00:53.44 bitrate=1491.2kbits/s speed= 3.1x    frame= 1374 fps= 78 q=6.0 size=    9728kB time=00:00:54.96 bitrate=1450.0kbits/s speed= 3.1x    frame= 1412 fps= 77 q=9.0 size=   11008kB time=00:00:56.48 bitrate=1596.6kbits/s speed= 3.1x    frame= 1444 fps= 77 q=9.0 size=   11008kB time=00:00:57.76 bitrate=1561.2kbits/s speed=3.08x    frame= 1477 fps= 77 q=8.0 size=   11008kB time=00:00:59.08 bitrate=1526.4kbits/s speed=3.07x    frame= 1508 fps= 76 q=9.0 size=   11008kB time=00:01:00.32 bitrate=1495.0kbits/s speed=3.05x    frame= 1538 fps= 76 q=9.0 size=   12800kB time=00:01:01.52 bitrate=1704.4kbits/s speed=3.04x    frame= 1567 fps= 75 q=9.0 size=   12800kB time=00:01:02.68 bitrate=1672.9kbits/s speed=3.02x    frame= 1598 fps= 75 q=9.0 size=   12800kB time=00:01:03.92 bitrate=1640.5kbits/s speed=   3x    frame= 1628 fps= 75 q=10.0 size=   12800kB time=00:01:05.12 bitrate=1610.2kbits/s speed=2.99x    frame= 1658 fps= 74 q=26.0 size=   12800kB time=00:01:06.32 bitrate=1581.1kbits/s speed=2.98x    frame= 1685 fps= 74 q=35.0 size=   14592kB time=00:01:07.40 bitrate=1773.6kbits/s speed=2.96x    frame= 1716 fps= 74 q=15.0 size=   14592kB time=00:01:08.64 bitrate=1741.5kbits/s speed=2.95x    frame= 1750 fps= 74 q=11.0 size=   14592kB time=00:01:10.00 bitrate=1707.7kbits/s speed=2.94x    frame= 1785 fps= 73 q=12.0 size=   14592kB time=00:01:11.40 bitrate=1674.2kbits/s speed=2.94x    frame= 1821 fps= 73 q=12.0 size=   15872kB time=00:01:12.84 bitrate=1785.1kbits/s speed=2.94x    frame= 1855 fps= 73 q=26.0 size=   15872kB time=00:01:14.20 bitrate=1752.3kbits/s speed=2.93x    frame= 1886 fps= 73 q=28.0 size=   15872kB time=00:01:15.44 bitrate=1723.5kbits/s speed=2.92x    frame= 1920 fps= 73 q=50.0 size=   17152kB time=00:01:16.80 bitrate=1829.5kbits/s speed=2.92x    frame= 1946 fps= 73 q=23.0 size=   17152kB time=00:01:17.84 bitrate=1805.1kbits/s speed= 2.9x    frame= 1973 fps= 72 q=21.0 size=   17152kB time=00:01:18.92 bitrate=1780.4kbits/s speed=2.88x    frame= 2005 fps= 72 q=14.0 size=   17152kB time=00:01:20.20 bitrate=1752.0kbits/s speed=2.88x    frame= 2038 fps= 72 q=14.0 size=   17152kB time=00:01:21.52 bitrate=1723.6kbits/s speed=2.87x    frame= 2070 fps= 72 q=22.0 size=   18432kB time=00:01:22.80 bitrate=1823.6kbits/s speed=2.87x    frame= 2103 fps= 72 q=13.0 size=   18432kB time=00:01:24.08 bitrate=1795.8kbits/s speed=2.86x    frame= 2134 fps= 71 q=18.0 size=   18432kB time=00:01:25.36 bitrate=1768.9kbits/s speed=2.86x    frame= 2168 fps= 71 q=13.0 size=   18432kB time=00:01:26.72 bitrate=1741.2kbits/s speed=2.85x    frame= 2200 fps= 71 q=20.0 size=   19712kB time=00:01:27.96 bitrate=1835.8kbits/s speed=2.85x    frame= 2231 fps= 71 q=15.0 size=   19712kB time=00:01:29.24 bitrate=1809.5kbits/s speed=2.84x    frame= 2263 fps= 71 q=13.0 size=   19712kB time=00:01:30.52 bitrate=1783.9kbits/s speed=2.84x    frame= 2296 fps= 71 q=20.0 size=   19712kB time=00:01:31.80 bitrate=1759.0kbits/s speed=2.83x    frame= 2321 fps= 70 q=34.0 size=   20992kB time=00:01:32.84 bitrate=1852.3kbits/s speed=2.82x    frame= 2349 fps= 70 q=31.0 size=   20992kB time=00:01:33.96 bitrate=1830.2kbits/s speed=2.81x    frame= 2377 fps= 70 q=25.0 size=   20992kB time=00:01:35.08 bitrate=1808.7kbits/s speed= 2.8x    frame= 2405 fps= 70 q=25.0 size=   20992kB time=00:01:36.20 bitrate=1787.6kbits/s speed=2.79x    frame= 2434 fps= 70 q=30.0 size=   22272kB time=00:01:37.36 bitrate=1874.0kbits/s speed=2.78x    frame= 2459 fps= 69 q=36.0 size=   22272kB time=00:01:38.36 bitrate=1854.9kbits/s speed=2.77x    frame= 2483 fps= 69 q=24.0 size=   22272kB time=00:01:39.32 bitrate=1837.0kbits/s speed=2.76x    frame= 2512 fps= 69 q=19.0 size=   22272kB time=00:01:40.48 bitrate=1815.8kbits/s speed=2.75x    frame= 2540 fps= 69 q=27.0 size=   22272kB time=00:01:41.60 bitrate=1795.8kbits/s speed=2.75x    frame= 2564 fps= 68 q=38.0 size=   23296kB time=00:01:42.56 bitrate=1860.8kbits/s speed=2.73x    frame= 2591 fps= 68 q=38.0 size=   23296kB time=00:01:43.64 bitrate=1841.4kbits/s speed=2.72x    frame= 2618 fps= 68 q=33.0 size=   23296kB time=00:01:44.72 bitrate=1822.4kbits/s speed=2.71x    frame= 2645 fps= 68 q=29.0 size=   23296kB time=00:01:45.80 bitrate=1803.8kbits/s speed=2.71x    frame= 2675 fps= 68 q=19.0 size=   23296kB time=00:01:47.00 bitrate=1783.6kbits/s speed= 2.7x    frame= 2704 fps= 67 q=21.0 size=   24576kB time=00:01:48.16 bitrate=1861.4kbits/s speed= 2.7x    frame= 2735 fps= 67 q=27.0 size=   24576kB time=00:01:49.40 bitrate=1840.3kbits/s speed=2.69x    frame= 2766 fps= 67 q=25.0 size=   24576kB time=00:01:50.64 bitrate=1819.7kbits/s speed=2.69x    frame= 2798 fps= 67 q=16.0 size=   24576kB time=00:01:51.92 bitrate=1798.8kbits/s speed=2.69x    frame= 2826 fps= 67 q=33.0 size=   25600kB time=00:01:53.04 bitrate=1855.2kbits/s speed=2.68x    frame= 2856 fps= 67 q=18.0 size=   25600kB time=00:01:54.24 bitrate=1835.7kbits/s speed=2.68x    frame= 2887 fps= 67 q=18.0 size=   25600kB time=00:01:55.48 bitrate=1816.0kbits/s speed=2.67x    frame= 2917 fps= 67 q=17.0 size=   25600kB time=00:01:56.68 bitrate=1797.4kbits/s speed=2.67x    frame= 2955 fps= 67 q=16.0 size=   26624kB time=00:01:58.20 bitrate=1845.2kbits/s speed=2.67x    frame= 2990 fps= 67 q=13.0 size=   26624kB time=00:01:59.60 bitrate=1823.6kbits/s speed=2.67x    frame= 3026 fps= 67 q=12.0 size=   26624kB time=00:02:01.04 bitrate=1801.9kbits/s speed=2.68x    frame= 3064 fps= 67 q=12.0 size=   26624kB time=00:02:02.56 bitrate=1779.6kbits/s speed=2.68x    frame= 3105 fps= 67 q=12.0 size=   27392kB time=00:02:04.20 bitrate=1806.7kbits/s speed=2.69x    frame= 3147 fps= 67 q=12.0 size=   27392kB time=00:02:05.88 bitrate=1782.6kbits/s speed=2.69x    frame= 3188 fps= 67 q=11.0 size=   27392kB time=00:02:07.52 bitrate=1759.7kbits/s speed= 2.7x    frame= 3228 fps= 68 q=11.0 size=   28416kB time=00:02:09.12 bitrate=1802.8kbits/s speed= 2.7x    frame= 3265 fps= 68 q=19.0 size=   28416kB time=00:02:10.60 bitrate=1782.4kbits/s speed=2.71x    frame= 3292 fps= 68 q=40.0 size=   28416kB time=00:02:11.68 bitrate=1767.8kbits/s speed= 2.7x    frame= 3319 fps= 67 q=38.0 size=   28416kB time=00:02:12.76 bitrate=1753.4kbits/s speed=2.69x    frame= 3344 fps= 67 q=40.0 size=   29440kB time=00:02:13.76 bitrate=1803.0kbits/s speed=2.69x    frame= 3368 fps= 67 q=39.0 size=   29440kB time=00:02:14.72 bitrate=1790.2kbits/s speed=2.68x    frame= 3395 fps= 67 q=29.0 size=   29440kB time=00:02:15.80 bitrate=1775.9kbits/s speed=2.67x    frame= 3422 fps= 67 q=20.0 size=   29440kB time=00:02:16.88 bitrate=1761.9kbits/s speed=2.67x    frame= 3450 fps= 67 q=20.0 size=   29440kB time=00:02:18.00 bitrate=1747.6kbits/s speed=2.66x    frame= 3476 fps= 66 q=28.0 size=   30720kB time=00:02:19.04 bitrate=1810.0kbits/s speed=2.66x    frame= 3504 fps= 66 q=16.0 size=   30720kB time=00:02:20.16 bitrate=1795.5kbits/s speed=2.65x    frame= 3548 fps= 67 q=12.0 size=   30720kB time=00:02:21.92 bitrate=1773.2kbits/s speed=2.66x    frame= 3592 fps= 67 q=18.0 size=   31488kB time=00:02:23.68 bitrate=1795.3kbits/s speed=2.67x    frame= 3639 fps= 67 q=10.0 size=   31488kB time=00:02:25.56 bitrate=1772.1kbits/s speed=2.68x    frame= 3687 fps= 67 q=6.0 size=   31488kB time=00:02:27.48 bitrate=1749.0kbits/s speed=2.69x    frame= 3731 fps= 67 q=10.0 size=   32000kB time=00:02:29.24 bitrate=1756.5kbits/s speed= 2.7x    frame= 3770 fps= 68 q=8.0 size=   32000kB time=00:02:30.80 bitrate=1738.4kbits/s speed= 2.7x    [out#0/webm @ 0x56159501a340] video:32549kB audio:0kB subtitle:0kB other streams:0kB global headers:0kB muxing overhead: 0.085800%
frame= 3775 fps= 68 q=10.0 Lsize=   32577kB time=00:02:30.96 bitrate=1767.8kbits/s speed= 2.7x    
